<svg xmlns="http://www.w3.org/2000/svg" xmlns:xlink="http://www.w3.org/1999/xlink" version="1.1" width="256" height="256" viewBox="0 0 256 256" xml:space="preserve">
<g style="stroke: none; stroke-width: 0; stroke-dasharray: none; stroke-linecap: butt; stroke-linejoin: miter; stroke-miterlimit: 10; fill: none; fill-rule: nonzero; opacity: 1;" transform="translate(1.4065934065934016 1.4065934065934016) scale(2.81 2.81)">
	<linearGradient id="SVGID_6" gradientUnits="userSpaceOnUse" x1="30.801" y1="81.0489" x2="30.801" y2="8.4183">
<stop offset="0%" style="stop-color:rgb(0,94,208);stop-opacity: 1"/>
<stop offset="100%" style="stop-color:rgb(48,186,255);stop-opacity: 1"/>
</linearGradient>
<path d="M 32.142 22.662 H 29.46 c -3.613 0 -6.553 2.94 -6.553 6.553 v 16.563 c 0 1.104 0.896 2 2 2 s 2 -0.896 2 -2 V 37.22 h 7.787 v 8.558 c 0 1.104 0.896 2 2 2 s 2 -0.896 2 -2 V 29.215 C 38.694 25.602 35.755 22.662 32.142 22.662 z M 26.908 33.22 v -4.005 c 0 -1.408 1.145 -2.553 2.553 -2.553 h 2.681 c 1.408 0 2.553 1.146 2.553 2.553 v 4.005 H 26.908 z" style="stroke: none; stroke-width: 1; stroke-dasharray: none; stroke-linecap: butt; stroke-linejoin: miter; stroke-miterlimit: 10; fill: url(#SVGID_6); fill-rule: nonzero; opacity: 1;" transform=" matrix(1 0 0 1 0 0) " stroke-linecap="round"/>
	<linearGradient id="SVGID_7" gradientUnits="userSpaceOnUse" x1="51.2463" y1="81.0489" x2="51.2463" y2="8.4183">
<stop offset="0%" style="stop-color:rgb(0,94,208);stop-opacity: 1"/>
<stop offset="100%" style="stop-color:rgb(48,186,255);stop-opacity: 1"/>
</linearGradient>
<path d="M 52.862 22.662 h -7.269 c -1.104 0 -2 0.896 -2 2 V 35.22 v 10.558 c 0 1.104 0.896 2 2 2 c 1.105 0 2 -0.896 2 -2 V 37.22 h 5.269 c 3.329 0 6.037 -2.708 6.037 -6.037 v -2.484 C 58.899 25.37 56.191 22.662 52.862 22.662 z M 54.899 31.183 c 0 1.123 -0.914 2.037 -2.037 2.037 h -5.269 v -6.558 h 5.269 c 1.123 0 2.037 0.914 2.037 2.037 V 31.183 z" style="stroke: none; stroke-width: 1; stroke-dasharray: none; stroke-linecap: butt; stroke-linejoin: miter; stroke-miterlimit: 10; fill: url(#SVGID_7); fill-rule: nonzero; opacity: 1;" transform=" matrix(1 0 0 1 0 0) " stroke-linecap="round"/>
	<linearGradient id="SVGID_8" gradientUnits="userSpaceOnUse" x1="65.0918" y1="81.0489" x2="65.0918" y2="8.4183">
<stop offset="0%" style="stop-color:rgb(0,94,208);stop-opacity: 1"/>
<stop offset="100%" style="stop-color:rgb(48,186,255);stop-opacity: 1"/>
</linearGradient>
<path d="M 65.092 22.662 c -1.104 0 -2 0.896 -2 2 v 21.116 c 0 1.104 0.896 2 2 2 s 2 -0.896 2 -2 V 24.662 C 67.092 23.558 66.196 22.662 65.092 22.662 z" style="stroke: none; stroke-width: 1; stroke-dasharray: none; stroke-linecap: butt; stroke-linejoin: miter; stroke-miterlimit: 10; fill: url(#SVGID_8); fill-rule: nonzero; opacity: 1;" transform=" matrix(1 0 0 1 0 0) " stroke-linecap="round"/>
	<linearGradient id="SVGID_9" gradientUnits="userSpaceOnUse" x1="45" y1="81.0489" x2="45" y2="8.4183">
<stop offset="0%" style="stop-color:rgb(0,94,208);stop-opacity: 1"/>
<stop offset="100%" style="stop-color:rgb(48,186,255);stop-opacity: 1"/>
</linearGradient>
<path d="M 83.731 30.029 c 0.017 -0.368 0.024 -0.721 0.024 -1.065 c 0 -14.515 -11.809 -26.324 -26.324 -26.324 c -7.886 0 -15.356 3.565 -20.338 9.623 c -2.791 -1.531 -5.911 -2.333 -9.127 -2.333 c -10.33 0 -18.764 8.271 -19.027 18.539 C 3.536 30.911 0 36.303 0 42.319 c 0 8.388 6.824 15.212 15.212 15.212 h 59.576 C 83.176 57.531 90 50.707 90 42.319 C 90 37.4 87.679 32.891 83.731 30.029 z M 74.788 53.531 H 15.212 C 9.03 53.531 4 48.501 4 42.319 c 0 -4.804 3.062 -9.068 7.618 -10.612 c 0.847 -0.287 1.4 -1.101 1.356 -1.994 l -0.02 -0.321 c -0.009 -0.142 -0.021 -0.284 -0.021 -0.428 c 0 -8.29 6.744 -15.034 15.033 -15.034 c 3.044 0 5.979 0.909 8.487 2.63 c 0.9 0.617 2.13 0.398 2.763 -0.492 c 4.188 -5.903 10.998 -9.428 18.215 -9.428 c 12.31 0 22.324 10.014 22.324 22.324 c 0 0.586 -0.028 1.214 -0.088 1.92 c -0.063 0.754 0.305 1.479 0.95 1.874 c 3.37 2.06 5.382 5.635 5.382 9.562 C 86 48.501 80.971 53.531 74.788 53.531 z" style="stroke: none; stroke-width: 1; stroke-dasharray: none; stroke-linecap: butt; stroke-linejoin: miter; stroke-miterlimit: 10; fill: url(#SVGID_9); fill-rule: nonzero; opacity: 1;" transform=" matrix(1 0 0 1 0 0) " stroke-linecap="round"/>
	<linearGradient id="SVGID_10" gradientUnits="userSpaceOnUse" x1="45" y1="81.0489" x2="45" y2="8.4183">
<stop offset="0%" style="stop-color:rgb(0,94,208);stop-opacity: 1"/>
<stop offset="100%" style="stop-color:rgb(48,186,255);stop-opacity: 1"/>
</linearGradient>
<path d="M 78.513 59.845 c -1.021 -0.422 -2.19 0.063 -2.613 1.082 l -2.928 7.066 c -0.526 1.271 -1.993 1.874 -3.259 1.352 c -2.66 -1.104 -5.036 -0.069 -6.368 1.265 c -1.338 1.334 -2.373 3.708 -1.27 6.371 c 0.526 1.271 -0.079 2.733 -1.348 3.26 l -7.068 2.926 c -1.272 0.527 -2.733 -0.08 -3.26 -1.347 c -1.103 -2.661 -3.513 -3.609 -5.4 -3.609 c -1.888 0 -4.297 0.947 -5.399 3.607 c -0.255 0.615 -0.734 1.095 -1.353 1.351 c -0.615 0.256 -1.292 0.254 -1.908 0 l -7.067 -2.928 c -0.614 -0.255 -1.093 -0.734 -1.349 -1.352 c -0.256 -0.617 -0.256 -1.295 -0.002 -1.908 c 1.102 -2.66 0.068 -5.034 -1.267 -6.369 c -1.334 -1.335 -3.708 -2.368 -6.369 -1.268 c -0.616 0.254 -1.294 0.254 -1.91 0 c -0.615 -0.255 -1.095 -0.734 -1.35 -1.351 l -2.927 -7.066 c -0.423 -1.02 -1.594 -1.504 -2.613 -1.082 c -1.021 0.423 -1.505 1.593 -1.083 2.613 l 2.926 7.065 c 0.664 1.604 1.913 2.853 3.515 3.516 c 1.603 0.664 3.369 0.663 4.97 0.001 c 0.992 -0.411 1.686 0.074 2.011 0.399 c 0.325 0.325 0.81 1.02 0.399 2.01 c -0.664 1.601 -0.663 3.365 0.001 4.97 c 0.664 1.604 1.912 2.853 3.513 3.517 l 7.068 2.929 c 0.797 0.329 1.633 0.496 2.485 0.496 c 0.854 0 1.691 -0.168 2.484 -0.497 c 1.604 -0.663 2.853 -1.912 3.516 -3.515 C 43.706 82.357 44.54 82.21 45 82.21 s 1.293 0.148 1.705 1.142 c 1.372 3.304 5.181 4.881 8.484 3.511 l 7.07 -2.927 c 3.307 -1.372 4.882 -5.179 3.512 -8.486 c -0.411 -0.991 0.073 -1.684 0.4 -2.01 c 0.397 -0.397 1.067 -0.79 2.014 -0.398 c 3.308 1.368 7.113 -0.213 8.482 -3.517 l 2.928 -7.066 C 80.018 61.438 79.533 60.268 78.513 59.845 z" style="stroke: none; stroke-width: 1; stroke-dasharray: none; stroke-linecap: butt; stroke-linejoin: miter; stroke-miterlimit: 10; fill: url(#SVGID_10); fill-rule: nonzero; opacity: 1;" transform=" matrix(1 0 0 1 0 0) " stroke-linecap="round"/>
	<linearGradient id="SVGID_11" gradientUnits="userSpaceOnUse" x1="44.9995" y1="81.0489" x2="44.9995" y2="8.4183">
<stop offset="0%" style="stop-color:rgb(0,94,208);stop-opacity: 1"/>
<stop offset="100%" style="stop-color:rgb(48,186,255);stop-opacity: 1"/>
</linearGradient>
<path d="M 45 72.652 c 7.098 0 13.792 -3.805 17.47 -9.931 c 0.568 -0.947 0.262 -2.176 -0.686 -2.744 c -0.948 -0.569 -2.176 -0.262 -2.744 0.686 c -3.003 5.003 -8.252 7.989 -14.041 7.989 c -5.788 0 -11.037 -2.986 -14.041 -7.989 c -0.569 -0.947 -1.798 -1.253 -2.745 -0.686 c -0.947 0.568 -1.253 1.798 -0.685 2.744 C 31.208 68.848 37.901 72.652 45 72.652 z" style="stroke: none; stroke-width: 1; stroke-dasharray: none; stroke-linecap: butt; stroke-linejoin: miter; stroke-miterlimit: 10; fill: url(#SVGID_11); fill-rule: nonzero; opacity: 1;" transform=" matrix(1 0 0 1 0 0) " stroke-linecap="round"/>
</g>
</svg>
